<?xml version="1.0" encoding="utf-8"?>
<!DOCTYPE svg PUBLIC "-//W3C//DTD SVG 1.0//EN" "http://www.w3.org/TR/2001/REC-SVG-20010904/DTD/svg10.dtd">
<svg version="1.0" xmlns="http://www.w3.org/2000/svg" width="1080px" height="817px" viewBox="0 0 1080 817" preserveAspectRatio="xMidYMid meet">
 <g fill="#d3b76d">
  <path d="M538.9 746.1 c-16.6 -1.3 -30.5 -7.4 -39.5 -17.4 -4.3 -4.7 -4.8 -6 -2.9 -6.6 6.8 -1.9 9.2 -3 11.7 -5.5 6.1 -5.9 8.4 -14.7 10.4 -40.7 3.9 -50.3 9.7 -76.3 22.5 -101.6 8.6 -17.2 19.4 -28.7 32.7 -34.8 5.1 -2.3 7 -2.6 14.1 -2.7 7.2 0 8.8 0.3 13.6 2.6 10.5 5.1 22.3 18.5 29.9 33.8 10.5 21.2 15.8 52.8 13.5 80.6 -2.6 31.3 -10.7 55.1 -24.4 72.2 -10.1 12.6 -20.3 18.3 -35.6 20.1 -9.1 1 -31.7 1 -46 -0.1z m57.8 -22.7 c5.1 -1.5 14 -8.5 18.6 -14.8 18 -24.3 24.2 -64.9 15.4 -101.5 -4.1 -17.3 -10.8 -30.1 -20.5 -39.1 -19.2 -17.8 -43.9 -7.4 -56.5 23.8 -16.1 39.8 -10.2 96.8 12.5 120.9 9.8 10.3 19.5 13.8 30.5 10.8z"/>
  <path d="M166.9 724.6 c-12.2 -1.6 -21.8 -4.3 -28.3 -7.8 -5.1 -2.7 -15.4 -12.1 -14.4 -13.1 0.3 -0.3 9.9 0.3 21.3 1.3 21.9 1.9 46.2 3.4 73.7 4.5 l16.2 0.6 -5.3 4 c-11.9 8.8 -23.2 12 -42.1 11.9 -6.4 -0.1 -16 -0.6 -21.3 -1.4z"/>
  <path d="M324.7 715.1 c-10.9 -1.4 -18.8 -4.6 -35.1 -14.1 -13.2 -7.8 -12.2 -7.6 -52.2 -8.7 -41.4 -1.1 -54.2 -1.9 -100.6 -6.8 -28.8 -3.1 -42.3 -1.4 -61.5 7.8 -4 2 -8.6 3.7 -10.2 4.1 -6.7 1.2 -17.6 -5.1 -19.2 -10.9 -0.5 -2.2 0 -3.2 4.6 -7.8 4.1 -4.2 5.4 -6 5.7 -8.8 0.2 -2 -0.8 -10.6 -2.4 -19.5 -2.8 -16.2 -4.9 -33.8 -4.1 -34.6 0.2 -0.3 0.7 0 1.2 0.5 2.2 2.3 9.2 29.1 11.5 43.5 2.1 13.1 2.1 13.1 4.3 15.2 1.4 1.3 3.2 1.8 6.3 1.8 3.6 0 4.7 -0.4 6.7 -2.7 4.9 -5.9 3.8 -15 -4 -33.3 -2.6 -6 -5.9 -14.1 -7.4 -18 -2.6 -6.5 -3.2 -7.3 -8.8 -11.6 -7.4 -5.5 -11.6 -9.9 -12.3 -12.8 -0.3 -1.2 -0.2 -4.3 0.4 -6.8 0.8 -4.5 12.2 -34.8 13.7 -36.5 0.4 -0.5 3.7 2.3 7.4 6 6.4 6.5 10.7 8.9 15.6 8.9 6.1 0 13.3 -21.8 13.4 -40.6 0 -8.6 1.5 -11.6 7.5 -16.1 18.6 -13.5 65.9 -27.8 111.4 -33.7 12.6 -1.6 28.9 -2.4 23.9 -1.2 -6.7 1.6 -34.5 11.2 -42.4 14.6 -22.8 9.8 -49.1 27.3 -63.4 42.2 l-4.6 4.7 8.1 -5.9 c11.5 -8.4 21.3 -14.1 40.2 -23.4 22.1 -10.8 31.7 -14.8 51.1 -21.2 27.9 -9.2 58.2 -16.1 77 -17.8 6.2 -0.5 6.8 -0.7 8.4 -3.4 1.3 -2.1 1.7 -4.6 1.7 -9.3 0 -5.3 0.4 -6.8 1.9 -8.5 5 -5.4 18.4 -8.6 27.1 -6.5 l4.5 1 12.2 -7.9 c52.4 -34.3 91.8 -50.4 144.5 -59.2 46.4 -7.7 96.3 -11.1 147.8 -10.1 51.4 0.9 81.8 4.5 119 13.8 39.3 9.9 73.4 24.9 109.9 48.6 16.4 10.7 31.5 21.3 31.5 22.2 0 0.5 -0.9 0.8 -2 0.8 -3.2 0 -17.9 4.1 -27.8 7.8 -13.4 4.8 -30.3 13.5 -35.4 18.1 l-4.6 4 8.5 -4.1 c23.3 -11.1 63.9 -20.3 85.5 -19.2 12.4 0.6 21 3 32.8 8.9 13.7 6.8 13.8 6.9 16.4 18.7 1.3 5.5 3.5 13.9 4.9 18.6 10.9 35.2 12.7 52.4 8.7 85.7 -1.3 11 -2.2 14.9 -2.2 9.5 0 -8.1 -2 -33 -3.3 -40.5 -4.3 -25.2 -12.9 -41.3 -25.4 -47.4 -3.7 -1.9 -5.9 -2.3 -12.3 -2.3 -6.8 0 -8.3 0.3 -12.6 2.6 -5.9 3.3 -15.1 12.9 -19.8 20.5 -11.3 18.7 -17.1 44.8 -22.8 101.6 -0.7 7.4 -1.8 14.6 -2.5 16 -1.7 3.6 -6.7 5.6 -18.2 7 -17.1 2.3 -48.6 6.8 -63.7 9.2 -14.1 2.3 -53.6 8.2 -127.7 19.1 -21.8 3.2 -39.8 5.7 -40 5.4 -0.2 -0.2 0.3 -3.4 1.1 -7 8.8 -38.3 7.8 -81 -2.3 -110.1 -5.8 -16.7 -17.4 -34.3 -27.4 -41.8 -33.7 -25.2 -73 -6.8 -94.2 44 -10.1 24.3 -16 52.9 -17.8 88.6 -1.6 29.7 -3.6 38.2 -10.2 43.6 -3.1 2.5 -4 2.7 -14.6 3.5 -33.5 2.3 -147.7 3.6 -161.3 1.7z m102.2 -21 c25.4 -1.7 33 -3 34.8 -5.8 1.3 -1.9 0.7 -7.8 -1.2 -13 -3.1 -8.6 -16.9 -35.8 -21.5 -42.7 -10.9 -15.8 -20.4 -18 -61.4 -13.8 -25.5 2.6 -47.4 5.8 -48.8 7 -0.5 0.5 3.8 0.8 10 0.9 6 0 11.7 0.4 12.6 0.6 1.4 0.5 0.5 2.1 -6 9.8 -10.7 12.7 -22.3 29.1 -23.5 33.3 -3.8 12.8 8.8 21.3 35.1 23.6 12.1 1.1 54.5 1.1 69.9 0.1z m-191 -33.8 c16.4 -1.3 30.2 -3.5 35.3 -5.7 11.9 -5.1 27.1 -29.5 27.1 -43.5 0 -4 -0.4 -4.9 -3.3 -7.8 -7 -6.8 -31.9 -12.2 -77.4 -16.7 -23.7 -2.4 -89 -2.4 -104.9 0 -25.6 3.7 -32.1 5.8 -34.6 11 -2 4.2 -1.8 12.3 0.4 18.8 5.8 17.2 13.3 28.1 22.3 32.3 9.4 4.4 32.5 8.6 58.5 10.6 7 0.5 14.2 1.1 16 1.3 7.8 0.7 50.1 0.5 60.8 -0.4z m474.5 -4.6 c28.2 -4.4 77 -12.6 90 -15.1 13 -2.6 26.4 -7 33.1 -10.9 6.1 -3.6 15.1 -12.5 20.2 -20.1 11.8 -17.5 20.6 -50.5 21.5 -80.2 0.5 -14.8 0.3 -14.6 -2.6 3.2 -6.6 38.7 -22.4 71.7 -40 83 -8.5 5.6 -26.1 10.9 -92.4 27.8 -31.7 8.1 -48.9 13 -50.1 14.1 -1.4 1.4 0.3 1.2 20.3 -1.8z m-33.8 -70.1 c-0.5 -14.1 -1 -19.2 -3.3 -30.2 -1.6 -7.2 -2.5 -13.4 -2.1 -13.8 0.4 -0.3 12.3 -2.5 26.6 -4.8 14.3 -2.4 40.1 -6.9 57.5 -10.2 17.3 -3.2 40.5 -7.4 51.5 -9.4 17.1 -3 19.2 -3.6 14.2 -3.6 -3.3 -0.1 -16 0.9 -28.3 2.2 -33.4 3.5 -138.9 15.1 -141.2 15.5 -2.7 0.6 -2.6 1.3 1.2 6.9 4.3 6.3 10.6 19.7 14.5 30.9 3.2 9.4 7.8 28.2 7.8 32.3 0 1.6 0.4 2.3 1 1.8 0.8 -0.5 0.9 -5.4 0.5 -17.6z m-288.4 -11.9 c55.3 -6.2 71.1 -11.7 96.2 -33.4 9 -7.8 12 -11.6 10.3 -13.3 -3 -3 -32 -3.3 -51.8 -0.5 -30.4 4.4 -63.4 14 -95 27.5 -24.2 10.3 -30.8 16.5 -22 20.6 3.6 1.7 5.2 1.8 24.8 1.4 11.9 -0.3 28.1 -1.2 37.4 -2.3z m-46.3 -36.7 c54.5 -24.2 120.5 -43.9 175.9 -52.4 l14.6 -2.3 -13.7 0.5 c-7.5 0.2 -16.8 0.8 -20.5 1.3 -3.7 0.5 -11.1 1.4 -16.4 1.9 -23.9 2.6 -64 13.5 -96.1 26.2 -23.6 9.3 -57.4 26.6 -63.1 32.4 l-2.7 2.7 4.7 -2.4 c2.6 -1.3 10.4 -4.8 17.3 -7.9z m278.8 -63 c1.2 -1.2 10 -13.8 19.7 -28.1 9.8 -14.3 20.8 -30.1 24.6 -35.1 11.9 -15.7 13 -19.5 5.7 -21.3 -17.2 -4.5 -97.9 -6.7 -142 -3.8 -34.4 2.2 -61.5 5.9 -77.4 10.7 -19.9 5.9 -46.3 19.5 -75.4 38.8 -29.5 19.4 -49.5 33.8 -48.2 34.7 0.6 0.5 32.8 0.8 71.4 0.8 79.4 0 106.1 0.6 186.5 4.5 7.8 0.5 18.3 0.8 23.5 0.8 8.7 0.2 9.6 0 11.4 -1.8z m48 1.1 c7.2 -1.4 10.8 -3.5 18.2 -10.4 4.9 -4.7 7.4 -7.9 9.7 -12.8 3.3 -6.9 6.8 -10.8 10.9 -12.3 8.9 -3.5 42.3 2.6 48.4 8.8 3.9 3.9 2.8 9.8 -2.8 15.1 -1.4 1.4 -3.7 2.9 -5.3 3.5 -3.6 1.4 -19.9 3.4 -34 4.2 -6.1 0.4 -11.4 0.9 -11.6 1.3 -0.8 1.4 6.2 1.9 27.5 1.9 37.1 0.1 83 -6.4 112 -15.7 17.9 -5.7 24.2 -10.5 24.2 -18.3 0 -9.1 -15.7 -19.9 -48.8 -33.1 -33.5 -13.5 -74.2 -20.1 -95.5 -15.6 -16.1 3.5 -27.5 13.8 -47.3 42.5 -11 16.1 -24.3 38.9 -23.1 40.1 2 1.8 10.4 2.3 17.6 0.9z"/>
  <path d="M910.7 691.4 c-11.3 -1.6 -18.5 -5.5 -26.3 -13.8 -3.4 -3.6 -5.9 -7 -5.7 -7.6 0.2 -0.5 2.7 -1.3 5.7 -1.6 11.6 -1.5 19.2 -4.9 22.3 -10 2.6 -4.3 3.5 -9.3 5.9 -35.2 2.3 -23.5 3.9 -35.1 6.5 -45.3 4.8 -19.4 12.3 -35.7 20.5 -44.6 6.4 -6.9 10.9 -9.7 16.3 -9.7 13.6 0 28.2 21.9 33.8 50.8 5.3 27.4 3.7 60.6 -4 83.5 -3.9 11.5 -7.8 17.8 -15.3 24.9 -9.1 8.7 -12.9 9.6 -36.7 9.5 -10 -0.1 -20.4 -0.5 -23 -0.8z m54.2 -20.1 c7.6 -5.5 13.7 -18.2 17.6 -36.7 1.6 -7.8 2.1 -12.5 2.1 -26.7 0.1 -18.6 -0.8 -26 -4.7 -38.3 -4.5 -14.2 -9.9 -23 -16.3 -26.1 -6.4 -3.1 -11.2 -1.9 -17.2 4.1 -11.4 11.3 -18.1 35.1 -18.1 64.4 -0.1 20.3 2.8 34.5 9.7 48 5.1 10 10.2 14 18.1 14 4.2 0 5.7 -0.5 8.8 -2.7z"/>
  <path d="M95.4 494.7 c-2.4 -17.6 1.4 -66.3 7.7 -98.2 17.5 -89.3 67.8 -173.1 141.8 -236.3 30 -25.6 69.8 -50.4 103.6 -64.4 3.7 -1.6 8.8 -3.8 11 -5 8.7 -4.6 32.2 -12.7 52.8 -18.2 59.2 -15.9 123 -19.2 183.2 -9.6 109.8 17.5 208.9 78.2 277.6 169.8 39.6 52.7 66.1 113.6 76.5 175.1 2.8 16.7 5 36.2 4.2 37 -0.2 0.3 -3.9 -0.1 -8.2 -0.7 -7.7 -1.2 -7.8 -1.3 -8.2 -4 -0.3 -1.5 -1.1 -8 -1.9 -14.6 -3.8 -30.1 -15.8 -78 -19.6 -78 -0.9 0 -8.5 4.2 -12 6.7 -2.1 1.4 -2.3 1 -3.1 -4.6 -0.5 -4.7 -0.5 -4.7 2.6 -6.4 1.7 -0.9 4.6 -2.6 6.4 -3.7 3.2 -2 3.3 -2.2 2.3 -5.5 -2.4 -7.9 -8.7 -22.5 -9.9 -22.8 -2 -0.4 -9.9 4.4 -10.8 6.6 -0.4 1 -1.4 3.6 -2.3 5.7 -1.7 4.2 -0.9 7.1 2.2 8.1 3.5 1.1 5 9.8 2 11.4 -2.6 1.4 -2.8 1.2 -2.8 -2.4 0 -3.1 -1.3 -4.9 -6.8 -9.3 -0.8 -0.7 -1.7 -2.5 -2.1 -3.9 -0.5 -3.1 -2.5 -3.5 -3.9 -0.8 -1.4 2.6 -3.6 2.3 -4.6 -0.5 -1.2 -3.2 -3.6 -3.9 -5.4 -1.7 -0.8 0.9 -2.6 2.6 -4.1 3.5 l-2.7 1.7 2.1 1.6 c1.2 1 2.8 1.7 3.7 1.7 2.6 0 4.6 1 4.6 2.3 0 0.6 0.6 1.6 1.4 2.3 1.9 1.6 1.7 2.3 -1.1 3.6 l-2.6 1.2 2.8 2.4 c3.6 3.1 7.9 13 8.2 18.9 0.3 5.1 -1.7 10.6 -6.1 16.1 -2.7 3.5 -13.9 9.9 -17.1 9.9 -2.8 0 -4.7 1 -4.7 2.4 0 1.9 -1.2 1.6 -10.3 -2.9 -23.5 -11.9 -55.8 -22.2 -88.2 -28.1 -33.3 -6.1 -61.1 -8.6 -99.2 -8.9 l-27.6 -0.3 0.5 -2.3 c0.3 -1.3 0.7 -4.6 1 -7.3 l0.5 -5 -11.2 -0.3 c-6.2 -0.1 -11.9 -0.5 -12.8 -0.7 -1.8 -0.5 -6.4 -7.2 -6.5 -9.3 0 -0.8 0.3 -2.5 0.6 -3.6 0.6 -2 0.5 -2.1 -4.1 -2.1 -4.6 0 -4.7 0.1 -4.1 2.1 1.7 5.6 1.6 6 -0.5 5.5 -1.9 -0.5 -2 -0.3 -1.5 1.8 0.6 2.7 -0.5 3.7 -3.4 3 -2.6 -0.7 -9.8 -11.7 -9.8 -15.1 0 -1.9 -0.6 -2.8 -3 -3.9 -1.6 -0.8 -5.7 -3.6 -8.8 -6.1 -5.9 -4.8 -8.4 -5.5 -8.9 -2.5 -0.5 2.1 2.2 4.8 9.9 10.3 3.4 2.4 6.5 5 6.8 5.7 0.4 0.8 -0.4 2 -1.8 3 -1.3 1 -3.2 3.4 -4.2 5.4 -1.3 2.5 -2.3 3.5 -3.2 3.1 -0.8 -0.3 -1.6 -0.5 -1.9 -0.5 -0.2 0 0.5 -1.1 1.5 -2.4 3.4 -4.4 2.6 -6.2 -5.1 -11.9 -3.9 -2.8 -8.5 -6.4 -10.1 -7.9 -2.7 -2.6 -3.2 -2.6 -5.9 -1.6 -1.6 0.5 -4.7 1.3 -6.8 1.6 -4.5 0.7 -5.5 1.6 -5.9 5.4 -0.3 2.5 -0.6 2.7 -3.9 3 -4.3 0.4 -8.1 3.6 -9.6 8 -1.4 4.1 -5.7 7.7 -9.4 7.7 -3.3 0 -7.3 1.8 -7.2 3.2 0.2 2.3 6.9 2.3 17.9 -0.1 11.8 -2.5 26.5 -3.7 31.9 -2.7 2.7 0.5 3.3 1 3.3 2.9 0 1.3 -0.6 2.9 -1.4 3.6 -2.2 2.3 -0.4 4.2 7.7 8.1 4.1 1.9 7.4 3.8 7.4 4.1 0 0.3 -7.1 1.3 -15.7 2.2 -22.4 2.2 -44 5.6 -65 9.9 -17.4 3.6 -18.9 3.8 -32.4 3.6 -14.5 -0.3 -42.9 -1.6 -52.2 -2.6 -6.1 -0.6 -5.6 -2.1 -7.2 19.1 l-1.1 14.4 -2.6 1.4 c-1.6 0.8 -2.9 1.2 -3.2 0.9 -0.4 -0.3 0 -7.4 0.6 -15.8 0.7 -8.5 1.3 -16.5 1.3 -18.1 l0.1 -2.6 -17.8 -1.6 c-32.4 -2.9 -65.7 -7.5 -96.1 -13.1 l-12.6 -2.4 -2.6 2.6 c-4.5 4.3 -5.7 8 -5 15.5 0.5 6.1 0.4 6.9 -1.6 9.1 l-2.2 2.5 -2.2 -3.1 c-1.3 -1.8 -2.4 -4.9 -2.6 -7.5 -0.3 -2.4 -0.8 -4.5 -1.3 -4.6 -0.7 -0.2 -3.9 14.8 -4.1 19.2 -0.1 0.7 1.3 1.1 3.8 1.1 5.6 0 12 2.4 18.2 6.8 10.1 7 3.7 8.3 -6.8 1.3 -4.7 -3.1 -6.7 -3.9 -10.9 -4.2 -6.1 -0.5 -5.5 -1.6 -7.7 13 -1.6 11.1 -1.6 10.5 0 10.5 1.6 0 1.7 2 0.4 9.9 l-1 5.8 2.8 2.8 c2.6 2.7 3.2 2.8 8.8 2.6 4.7 -0.3 6.4 0 7.8 1.3 1.7 1.6 1.8 1.6 4.7 -1.6 3.3 -3.6 11.8 -8.6 13.3 -7.7 0.5 0.4 1 1.8 1 3.4 0 3.2 1.6 3.5 2.6 0.5 1.6 -4.1 5.6 -5.5 5.6 -2 0 1.8 2.5 2.3 13.7 2.6 9.2 0.2 9.6 0.3 9.9 2.3 0.2 1.1 1.1 2.6 2.1 3.2 2.4 1.5 2.2 2 -1.4 6.3 -3.1 3.6 -6 10.3 -6 13.7 0 2 -0.5 2.1 -19.6 4.4 -16.6 1.9 -28.4 2.3 -30.5 1 -1.2 -0.7 -1 -1.6 1.2 -5.9 2.2 -4.4 2.5 -5.7 1.9 -9.7 -0.4 -2.5 -1.4 -5.5 -2.3 -6.7 -1.5 -1.7 -2 -1.8 -3.6 -0.8 -2.7 1.6 -5.6 1.4 -9.9 -1.1 -2.7 -1.6 -3.9 -1.9 -4.2 -1.1 -0.3 0.6 -0.7 7.2 -1.1 14.5 l-0.7 13.4 -3 0 -3.1 0 0 -5.7 c0 -3.2 0.5 -12.3 1 -20.3 l1.1 -14.5 -2.2 -1.6 c-1.2 -0.9 -3.3 -1.7 -4.6 -1.7 -2.6 0 -9.9 -3.7 -11.8 -5.9 -0.6 -0.8 -2.1 -1.1 -4.1 -0.7 -5.1 0.8 -8.9 -0.5 -17 -5.6 -11.9 -7.7 -12.4 -8.1 -13 -13 -0.5 -3 -2.6 -7.6 -6.8 -14.9 -3.5 -5.7 -7.2 -13.1 -8.3 -16.2 -1.9 -5.3 -3.8 -7.6 -5.1 -6.3 -0.3 0.3 0.8 4.1 2.4 8.6 3.5 9.6 6.4 19.3 6.4 21.2 0 0.9 -0.9 0.5 -2.6 -1.2 -3.1 -3 -7.7 -13.3 -11.9 -27 -1.6 -5.3 -3.7 -10.2 -4.6 -11 -0.8 -0.8 -2 -3.6 -2.6 -5.9 -1.7 -6.7 -1.8 -6.8 -2.7 -6.8 -0.5 0 -1 0.7 -1.3 1.6 -0.3 0.8 -2.6 7.8 -5.2 15.2 -10.9 31.8 -18.2 69.4 -19.8 102 l-0.5 11.6 26.8 0.1 c14.8 0.1 34.4 0.4 43.7 0.7 l16.9 0.5 -13.7 2.6 c-13.2 2.4 -15 2.5 -43.6 2.5 l-29.8 0 0 10 0 10 -8.1 4 -8 4.1 -0.6 -4.2z m133.5 -86.7 c0 -2.6 2.8 -20.1 6.3 -38.3 l1.6 -9.4 -3.8 0 c-2.2 0 -5 0.5 -6.3 1.3 -1.6 0.8 -3.5 1 -5.6 0.5 -7.3 -1.6 -19.6 6.3 -19.6 12.7 0 1.6 -0.6 5.1 -1.4 8 -2.1 7.9 -1.8 12.7 0.9 15.3 1.8 1.9 3.1 2.3 7.8 2.3 5.5 0 5.5 0 7 -3.4 2.3 -5 3.9 -6.7 6.6 -6.7 5 0 5.3 0.9 3 9.8 -2.6 10.1 -2.6 10.3 0.7 10.3 2.4 0 2.7 -0.4 2.7 -2.5z m250.9 -47.5 c1.8 -2.4 3.7 -5.7 4.3 -7.4 0.6 -1.6 3.4 -5.2 6.1 -7.8 6.4 -6.1 6.7 -8.8 1.4 -10.9 -2 -0.8 -4.5 -1.5 -5.5 -1.5 -1.6 0 -1.8 -0.6 -1.8 -4.8 0 -2.7 0.3 -8.1 0.6 -12 l0.5 -7.1 11.1 0.5 11.1 0.5 1.1 -2.3 c2.5 -5.5 -0.3 -12.1 -5.7 -14.1 -2.6 -1 -3 -1.4 -2.3 -2.8 0.5 -1 1.9 -1.6 3.6 -1.6 3.2 0 11.9 -4.5 15.7 -8 l2.5 -2.4 0 -13.5 0 -13.5 -8.6 0 -8.6 0 -0.6 2.8 c-0.4 1.6 -0.5 2.8 -0.3 2.9 3 1.6 3.9 2.5 4 3.9 0.1 1 0.2 2.2 0.3 2.7 0.1 0.6 1.2 1.4 2.5 1.6 1.9 0.5 2.3 1 1.8 2.7 -0.4 1.6 0 2.4 1.7 3.1 2.5 1.1 2.7 2.5 1.5 5.9 -1 2.5 -5.1 4.3 -9.9 4.3 -1.6 0 -4.1 0.6 -5.4 1.5 -1.6 1.1 -2.6 1.3 -3.2 0.6 -1.7 -1.7 -0.5 -4.3 2.6 -5.2 3.4 -0.9 3.7 -2 1 -2.8 -2.4 -0.8 -1.9 -3.3 1 -4.7 1.3 -0.6 2.3 -1.6 2.2 -2.1 -0.1 -0.5 -0.2 -2.1 -0.2 -3.6 -0.2 -2.5 -0.4 -2.6 -2.9 -2.1 -2.4 0.5 -2.7 0.2 -2.7 -1.4 0 -1.1 -0.9 -2.7 -1.9 -3.7 -1.4 -1.2 -1.8 -2.6 -1.6 -4.1 0.5 -2.2 0.4 -2.3 -6.9 -2.7 -4.1 -0.3 -14.8 -0.7 -23.8 -1 -9 -0.3 -24.6 -1.1 -34.6 -1.8 -9.9 -0.8 -18.2 -1.3 -18.4 -1.2 -0.5 0.5 -6 29.8 -8.9 47.9 -2.6 15.5 -5.5 37.7 -8.2 61.6 -0.2 1.9 -0.1 3.6 0.2 3.8 1.5 0.8 54.5 3.7 75 4 l6.8 0.1 3.3 -4.3z m-91 -7.5 c2.6 -27.2 9.9 -74.5 14.2 -94.9 1.1 -4.7 1.9 -9.2 1.9 -10.1 0 -1.2 -1.8 -1.6 -11.1 -2.6 -33.6 -3.4 -73.3 -9.4 -77.4 -11.6 -1.3 -0.7 -3.4 -2.2 -4.7 -3.3 -2 -1.6 -2.9 -1.7 -4.6 -1 -1.3 0.5 -3.6 0.5 -6.5 0.1 -8.4 -1.6 -8.2 -1.7 -15.1 13 -5.6 11.8 -11.5 27.5 -13.2 35 -0.5 2.3 -0.5 2.6 1 1.9 0.9 -0.4 2.6 -0.9 3.7 -1.1 2.4 -0.5 2.5 -1 0.6 -3.7 -1.9 -2.6 -1 -4.2 5.4 -9.7 5.7 -4.9 6.8 -7.4 4.7 -11.2 -1.3 -2.6 -1.2 -3 0.7 -6.9 1.2 -2.3 2.6 -5.4 3.1 -6.9 l1 -2.8 7.8 0 c9.4 0 11.5 1.4 11.5 7.2 0 3.6 1.8 6.5 4 6.5 0.6 0 3.6 -1.6 6.6 -3.6 6.2 -4.1 7.7 -3.7 7.7 1.9 0 4 1.7 8.8 3.9 10.7 0.9 0.6 1.6 2.2 1.6 3.3 0 1.5 0.9 2.6 3.2 3.6 3.3 1.6 4.7 4.5 3.8 7.9 -0.3 1.1 -0.1 2.6 0.5 3.5 0.7 1.2 0.5 2.3 -0.5 4.4 -1.7 3.3 -1.3 3.9 2.4 3.9 2.6 0 2.6 0.1 2.1 3.2 -0.4 2 -0.3 3.2 0.4 3.2 0.5 0 0.9 0.8 0.9 1.8 0 2.3 -4.1 2.6 -4.9 0.4 -0.5 -1.3 -1.6 -1.5 -6.5 -1 -3.7 0.4 -5.9 0.3 -5.9 -0.4 0 -0.5 1.6 -3.2 3.7 -5.9 2 -2.8 3.5 -5.3 3.2 -5.6 -0.3 -0.3 -2.8 0.2 -5.7 1.1 -3.9 1.2 -7 1.5 -12.7 1.2 -8 -0.5 -11.5 0.4 -14.5 3.7 -2.1 2.4 -1.8 2.4 3.7 0.2 4.1 -1.6 4.6 -1.6 6.8 -0.1 2.8 1.6 2.5 2.7 -0.8 2.7 -1.2 0 -2.4 0.6 -2.7 1.5 -0.9 2.3 1 4.5 3.9 4.5 1.7 0.1 2.7 0.6 2.9 1.6 0.2 0.9 1.4 1.6 3.1 1.8 2.6 0.3 2.4 0.5 -3.9 4.1 -8.6 4.8 -9.5 5 -9.5 2.1 0 -1.9 -0.4 -2.2 -2.3 -2 -3 0.5 -10 3.6 -12 5.4 -0.9 0.8 -1.6 2.4 -1.6 3.6 0 1.6 -0.8 2.3 -3 3 -4.1 1.4 -9.8 6.2 -9.8 8.4 0 1.1 -0.6 1.7 -1.8 1.7 -2 0 -3.4 2.6 -4.3 8 -0.4 1.8 -1.7 4 -3.6 5.7 -1.7 1.5 -3.1 3 -3.1 3.5 0 1.9 48.7 9.4 86.4 13.4 11.9 1.2 23.2 2.4 24.9 2.6 1.7 0.2 4.7 0.4 6.4 0.3 l3.2 -0.1 0.7 -6.8z m294.6 -18.2 c1.2 -0.5 2.5 -1.5 2.7 -2.2 0.6 -1.6 -1.1 -6.7 -3.2 -9.8 -1.6 -2.2 -1.6 -2.3 0.9 -4.2 l2.5 -2 -2.3 -0.9 c-1.3 -0.5 -3.1 -1 -4.1 -1.2 -1.8 -0.4 -5.9 -5.7 -5.9 -7.7 0 -0.6 1.6 -1.8 3.6 -2.7 4.5 -2 5.1 -2.8 3.6 -4.6 -0.8 -0.9 -3 -1.4 -6.9 -1.4 -5.2 0 -6.1 0.3 -9 2.8 -1.7 1.6 -3.2 3.6 -3.2 4.6 0 1 1.6 4.4 3.6 7.6 2.6 4.4 3.6 7 3.9 10.9 0.5 7 3.9 10.6 10.5 11.4 0.5 0 2.1 -0.3 3.3 -0.7z m-39.6 -17.5 l3 -1.8 -2 -2.2 c-1.1 -1.2 -4.8 -3.6 -8.3 -5.5 -3.5 -1.8 -6.3 -3.6 -6.3 -4 0 -0.4 1 -1.6 2.3 -2.8 2.1 -2 3.1 -4.6 1.7 -4.6 -0.4 0 -2.6 0.7 -5 1.6 -3.8 1.4 -4.4 1.9 -4.7 4.4 -0.3 2.5 -0.5 2.7 -3.5 2.7 -2.8 0 -3.2 -0.3 -3.6 -2.7 -0.5 -2.6 -0.8 -2.7 -4.7 -3 -4.9 -0.4 -5.8 0.5 -7.8 7.2 -2.6 9.4 -2.7 8.8 0.9 10.5 2.8 1.4 3.9 1.5 7.9 0.5 6 -1.5 12.5 -1.3 15.9 0.3 4.2 1.9 10.5 1.6 14 -0.5z m59.1 -13.2 c0.7 -1.8 -0.7 -4.4 -2.7 -4.7 -2 -0.5 -3.8 3.2 -2.4 4.9 1.5 1.7 4.4 1.6 5.1 -0.2z m-165.4 -35.6 c1.4 -0.8 1.7 -2 1.6 -5.5 0 -5.6 0.9 -6.8 5.6 -6.8 l3.6 0 -0.5 3.9 c-0.3 2.2 -0.8 4.7 -1.2 5.6 -0.6 1.6 -0.3 1.6 4.4 1.1 3.3 -0.5 5.3 -0.3 5.7 0.3 0.8 1.5 5.2 1.2 7.6 -0.5 1.9 -1.3 2.4 -1.3 5 0 4.5 2.1 7.3 -0.2 8.4 -6.8 0.5 -2.9 0.8 -3.3 4.4 -4.1 3 -0.6 3.9 -1.3 4.1 -2.9 0.3 -2.1 0.3 -2.1 -9.5 -1.8 l-9.9 0.3 -2.8 5 c-2.2 3.9 -3.4 5.1 -5.6 5.6 -1.6 0.3 -3.3 0.8 -3.8 1.2 -0.6 0.4 -1.3 -0.4 -1.6 -1.9 -0.4 -1.4 -1.1 -4 -1.7 -5.7 l-1.1 -3.2 -10.7 -0.3 -10.7 -0.3 0 10.5 0 10.5 3.5 -1.6 c1.8 -0.9 4.2 -2 5.1 -2.6z m-265.9 -8.8 c1.6 -4.5 5 -12.4 7.5 -17.7 2.5 -5.3 4.5 -9.9 4.5 -10.5 0 -0.5 -2.3 -0.6 -6.1 -0.2 -5.7 0.5 -6.1 0.5 -4.9 -0.9 3.1 -3.6 -2.8 -2.8 -7.4 1.1 -1.6 1.5 -4.8 3.6 -7.2 4.9 -7.1 4.2 -11.6 9.1 -12.2 13.9 -0.9 6 0.5 7.8 10.3 11.9 4.5 1.8 8.9 4.2 9.9 5.2 0.8 1 1.8 1.5 2.2 1.1 0.3 -0.5 1.9 -4.4 3.6 -8.8z m250.9 -61.2 l0 -46.9 -7.5 -0.5 c-4.2 -0.3 -13.4 -0.7 -20.5 -1 -14.6 -0.5 -16.1 -0.1 -25.2 7 -2.5 1.9 -5.1 3.9 -5.9 4.4 -1.4 0.8 -1.3 1.2 1 3.1 2.9 2.6 3.2 4.2 0.7 4.2 -2.1 0 -3.3 1.5 -1.9 2.3 0.5 0.4 0.7 1.4 0.5 2.3 -0.3 1 0 1.8 0.9 2.2 2 0.7 1.7 2.4 -0.5 2.4 -1.6 0 -1.6 0.3 -0.7 2.3 1.3 2.9 0.7 3.5 -2.5 2.3 -2.3 -0.8 -2.5 -0.7 -2 0.8 0.3 1.2 -0.1 1.9 -1.4 2.2 -1.4 0.4 -1.6 1 -1.2 2.5 0.5 1.4 0 2.4 -1.6 3.6 -1.2 1 -1.6 1.7 -0.9 1.8 2.1 0 1.2 2.7 -1 2.7 -2.8 0 -3.6 0.9 -2.3 2.5 0.6 0.8 0.7 1.6 0.1 2.2 -1.7 1.7 -17.6 7.2 -20.8 7.2 -2 0 -3.5 0.5 -3.7 1.3 -0.3 0.7 -1.6 1.6 -2.9 1.9 -2.3 0.5 -2.6 1.4 -6.4 15.1 -2.2 8.1 -3.8 14.8 -3.6 15 0.3 0.3 38.4 2.9 50 3.5 3.3 0.2 18 0.4 32.7 0.5 l26.6 0.2 0 -46.9z m56.4 46 l2.9 0 -2.4 -4.7 c-2.8 -5.6 -2.3 -7.8 3.4 -13.2 1.9 -1.9 3.6 -3.9 3.6 -4.6 0 -1.2 -2 -2.2 -4.4 -2.2 -1.3 0 -14 12.9 -16 16.1 -0.4 0.6 0.3 3 1.3 5.4 1.8 4.2 2 4.3 5.2 3.7 1.9 -0.3 4.7 -0.5 6.4 -0.5z m-169.8 -12.8 c2.7 -11.2 2.7 -11 -0.7 -10.8 -4.6 0.3 -10.3 5.4 -12.5 11 -0.9 2.6 -2 5.5 -2.4 6.3 -0.5 1.3 0.1 1.6 4.3 1.9 9.7 0.7 8.9 1.2 11.3 -8.5z m-35.5 3.8 c-1.5 -1.6 -5.4 -11.7 -6.5 -16.8 -0.9 -4 1.9 -9.9 5.6 -11.3 4.2 -1.8 3.7 -3.1 -1.1 -3.1 -2.3 0 -4.1 -0.3 -4.1 -0.7 0 -1.1 2.7 -4.7 3.6 -4.7 0.5 0 1.9 -0.5 3.2 -0.9 2 -0.7 2.3 -1.2 1.4 -2.3 -0.5 -0.6 -2.2 -1.4 -3.5 -1.6 -2 -0.2 -2.6 -0.8 -2.7 -3 -0.5 -6.7 -1.4 -9 -4.5 -12.4 l-3.3 -3.6 -8.5 0.5 c-7.8 0.5 -8.6 0.5 -9.2 -1 -0.4 -1 -0.2 -1.8 0.5 -2.1 2 -0.6 1.2 -1.8 -1.6 -2.5 -1.5 -0.4 -2.7 -1.2 -2.7 -1.9 0 -1.8 4.9 -4.7 10.4 -5.8 7.5 -1.7 7.4 -1.6 4.7 -4.2 l-2.6 -2.4 -5.1 2 c-7.4 2.8 -16 8.7 -20.5 14 -5 5.8 -14.2 18.7 -14.2 19.8 0 0.5 1.2 0.8 2.6 0.8 1.5 0 3.4 0.8 4.3 1.8 0.9 1 2.1 1.8 2.6 1.8 0.5 0 2.9 1.4 5.4 3 3.8 2.6 4.4 3.3 4 5.5 -0.3 2.4 0.3 3 5.4 6.4 3.2 2.1 5.8 4.3 5.8 4.8 0 0.5 -1.5 2.3 -3.2 4 -3.4 3.3 -3.4 3.3 -9.8 -0.7 -2.1 -1.3 -2.6 -1.3 -3.6 -0.3 -1 0.9 -0.4 1.8 3.2 5 3.8 3.4 4.2 4 2.9 5.1 -2 1.6 -1.7 2.6 1.4 3.2 4.4 1 33.9 4.8 37.8 4.9 3.4 0.1 3.5 0 2.1 -1.6z m167.7 -7.3 c6.7 -4.5 9.4 -7.1 14.6 -13.9 6.4 -8.3 10.3 -11.4 17.1 -13.6 1.8 -0.6 3.7 -1.6 4.4 -2.3 0.6 -0.8 2.7 -1.2 6.2 -1 2.8 0.1 7.2 0.3 9.6 0.4 3.6 0.1 4.6 0.5 4.9 1.8 0.3 1.2 1.7 2.1 4.3 2.6 20 4.7 27 7.8 27 12.1 0 2.6 -6.5 4 -12.7 2.7 -6.4 -1.3 -7.5 -0.3 -4.2 3.8 2.3 2.7 3.2 3.2 8 3.7 5.8 0.5 7.1 0.3 5.4 -1.5 -1.7 -1.7 -1.4 -2.2 2.8 -3.8 2.2 -0.8 4.9 -2.5 6 -3.6 l1.9 -2.1 -4.9 -14.1 c-7.8 -22.5 -19.8 -50.7 -22.1 -52.1 -0.5 -0.3 -6.1 0 -12.7 0.6 -12.7 1.3 -49.2 3.2 -60.8 3.2 l-7.1 0 0 43.1 0 43 2.1 -1.8 c1.1 -1 5.7 -4.4 10.2 -7.4z m-235.8 -3.3 c0 -0.7 1.4 -2.2 3 -3.2 1.6 -1 4.4 -3.6 6.1 -5.7 2.9 -3.6 2.9 -3.9 1.4 -5 -0.9 -0.7 -2 -1.3 -2.4 -1.3 -0.4 0 -0.9 -0.8 -1.3 -1.8 -0.7 -2.3 -5.8 -4.8 -7.3 -3.6 -0.6 0.5 -3.1 4.8 -5.5 9.7 -4.7 9.1 -4.7 10.3 0 10.4 1 0 2.5 0.5 3.2 0.9 1.9 1.3 2.7 1.1 2.7 -0.4z m-17 -3.7 c1.5 -2.3 1.5 -2.3 -1.5 -2.3 -1.6 0 -3.6 0.5 -4.4 0.9 -1.2 0.8 -1.1 1.1 0.4 2.3 2.6 1.9 3.7 1.7 5.5 -0.9z m-56.6 -4 c0.8 -1.3 -19.7 -1.8 -21.2 -0.5 -0.9 0.8 0.3 1.2 5.7 1.6 3.7 0.3 7.6 0.9 8.5 1.4 1.6 0.9 5.9 -0.5 7 -2.5z m487.1 -1.2 c2 -2.8 1.8 -4.9 -0.7 -8.3 -1.2 -1.6 -2.5 -4.1 -2.7 -5.7 -1.3 -5.4 -1.6 -8.7 -1 -8.7 0.5 0 3.1 0.9 6.1 1.9 6 2.3 7.5 1.8 4.6 -1.3 -2.9 -3.1 -2.6 -3.9 2.3 -4.8 2.3 -0.5 4.4 -1.3 4.6 -1.8 1.1 -3.4 -24 -34.3 -38.3 -47.2 l-7.1 -6.5 -8.4 2 c-13 3.2 -29.8 6.3 -45.3 8.4 -7.8 1.1 -14.7 2.1 -15.3 2.4 -0.8 0.2 -0.1 2.4 2.4 7.4 5.1 10.3 12.5 28.6 18.1 45.3 2.6 7.9 5.2 14.9 5.7 15.3 0.5 0.5 1.7 0.1 3 -0.9 1.2 -1 3.8 -2 5.8 -2.4 2.3 -0.5 4.4 -1.6 5.6 -3.1 1.8 -2.2 2.2 -2.3 5.4 -1.4 2.5 0.8 4 0.8 5.2 0.2 1.1 -0.6 3.9 -0.7 7.1 -0.4 3.5 0.4 5.5 0.3 5.8 -0.4 0.4 -0.5 0.1 -1 -0.5 -1 -0.7 0 -0.6 -0.5 0.4 -1.5 1.4 -1.5 2 -1.4 7.8 0.4 8.3 2.6 12.1 3.3 12.1 2.2 0 -0.5 -1 -1.6 -2.3 -2.4 -1.3 -0.8 -2.3 -2.4 -2.3 -3.4 0 -3.1 3.7 -10.9 5.3 -10.9 2.8 0 7.5 2.2 7.5 3.6 0 2.9 2 8.3 3.6 9.9 3.8 3.6 4.7 9.5 1.6 12.7 l-1.9 2.1 2.4 0 c1.4 0 2.9 -0.8 3.7 -2z m-462.5 -1.7 c5.7 -1.4 8 -3.6 3.8 -3.6 -3.7 0 -3.1 -3.2 1.1 -5.4 3.9 -2 9.3 -8.3 9.3 -10.9 0 -2.8 2.3 -4.5 7.8 -5.6 7.3 -1.6 7.9 -0.7 2.3 3 -6.5 4.3 -8.5 6 -9.9 9 -1.1 2.2 -1 3 0.6 6.8 2 4.6 4.8 6.4 8.7 5.4 1.8 -0.5 2.8 -1.9 5.9 -8 0.2 -0.3 -0.5 -0.8 -1.6 -1.2 -4 -1.3 -1.6 -9.5 3.7 -13.3 2.4 -1.7 4.4 -2.2 10.9 -2.5 6 -0.3 8 -0.7 8 -1.6 0 -1 -2.5 -1.3 -12.3 -1.3 -11.7 0 -12.3 -0.1 -12.3 -1.8 0 -1.4 0.6 -1.8 2.6 -1.8 1.4 0 3.4 -0.6 4.6 -1.4 1.4 -1 2.9 -1.3 5.2 -0.8 3.5 0.6 4.6 -0.9 1.3 -1.9 -3.2 -1 -1.4 -2.7 3.4 -3 6 -0.4 7.6 -2 1.8 -2 -3.6 0 -4.5 -0.3 -4.8 -1.9 -0.3 -1 -1.5 -2.3 -2.6 -2.7 -4.5 -1.6 -1 -8.5 5.2 -10.4 2.3 -0.7 6.8 3.1 7.6 6.6 0.6 2.5 2.4 2 2.4 -0.7 0 -1.4 0.6 -1.7 3.1 -1.7 1.7 0 3.5 -0.4 3.7 -0.9 0.4 -0.5 -1.2 -0.9 -3.9 -0.9 -5.7 0 -7.4 -1.6 -4.5 -4.4 2 -1.9 21.9 -7.5 31.2 -8.8 4.1 -0.5 5.4 -1.4 12.2 -7.8 l7.6 -7.1 -5.3 -1.6 c-3 -0.8 -9.2 -2.9 -13.9 -4.7 l-8.4 -3.2 -11.9 6.6 c-14.9 8.1 -33 20.1 -49.4 32.5 -12.1 9.3 -27.5 22.9 -26.7 23.7 0.2 0.2 2.1 -0.1 4.1 -0.7 4.3 -1.3 5.2 -0.8 3.8 1.8 -1.1 1.9 -8.6 4.7 -12.9 4.7 -1.7 0 -3.3 1 -5.4 3.6 l-2.9 3.6 2.6 0 c1.5 0 3.5 0.6 4.5 1.4 1.8 1.2 2.2 1 5.7 -2.3 2.1 -2 4.4 -3.6 5.1 -3.6 1.8 0 1.7 2.9 -0.2 6.3 -1.6 2.7 -1.6 2.9 0.4 6.7 2.6 4.8 1.8 5.9 -5.3 6.8 -3.8 0.5 -5.4 1 -5.4 1.9 0 1.1 1.4 1.3 7.1 0.9 3.8 -0.2 9.5 -1 12.4 -1.6z m41.1 -10.7 c-0.2 -0.2 -1.6 -0.1 -3.1 0.3 -2.6 0.5 -2.8 0.9 -2.8 4.5 0 2.2 0.3 4.2 0.6 4.6 0.6 0.6 5.8 -8.7 5.3 -9.3z m514 -15.3 c-16 -16.4 -56.6 -46.5 -82.6 -61.3 l-8.4 -4.7 -4.1 1.7 c-2.3 1 -8.1 3.1 -13 4.7 -4.9 1.6 -9.1 3 -9.3 3.2 -0.2 0.1 3.6 4.1 8.5 8.8 9.9 9.6 21.1 22.2 29.5 33.4 6.6 8.7 7 9 8.8 7.2 1.8 -1.8 9.3 -3.3 16.8 -3.3 4.7 0 6.8 -0.5 8.4 -1.7 4.6 -3.5 6.2 -4 8.5 -2.5 1.2 0.7 3.6 1.6 5.4 1.9 1.8 0.4 3.5 1.2 3.7 1.9 0.4 0.9 2 1.3 5.6 1.3 3.8 0 5.5 0.5 6.8 1.8 l1.9 1.9 -3.7 4.2 c-4.2 4.7 -4.6 6 -1.6 5.3 1.1 -0.2 5.7 -0.1 10.2 0.4 15.1 1.4 14.4 1.8 8.7 -4.1z m-444.9 -36.9 c7.5 -3.6 14.7 -4.7 28.7 -4.9 l11.2 -0.1 -0.3 -2.2 c-0.3 -2.1 -1 -2.4 -11.3 -4.2 -6 -1.2 -14.7 -2.9 -19.2 -4 -4.6 -1 -8.9 -1.9 -9.7 -1.9 -1.5 0 -12.5 9.7 -12.5 10.9 0 0.4 3.1 0.5 6.8 0.2 3.7 -0.2 7.6 -0.2 8.4 0.2 1.5 0.5 1.4 0.7 -0.1 2.4 -0.9 1 -2.6 1.8 -3.7 1.8 -2.5 0 -8.1 4.5 -5.7 4.6 0.8 0 4.2 -1.3 7.5 -2.7z m208.2 -7.4 c17.1 -0.9 30.5 -2.3 31.3 -3.1 0.6 -0.6 -8.4 -16.1 -15.4 -26.5 -11.3 -16.6 -23.4 -28.1 -36.9 -34.9 -5.8 -2.9 -7.2 -3.3 -16.1 -3.6 l-9.8 -0.5 0.5 34.1 c0.3 18.8 0.6 34.6 0.8 35.1 0.3 1.1 19.2 0.8 45.6 -0.6z m-52.4 -33.8 l0 -34.8 -8.1 0.5 c-6.7 0.5 -9.4 1.1 -14.9 3.6 -17.6 8.1 -35.4 27.3 -48.1 51.6 l-3.7 7.2 6.1 0.6 c3.5 0.4 7.8 1.4 9.9 2.4 4.2 1.9 20.3 3.2 44.1 3.5 l14.8 0.1 0 -34.8z m112.3 27.9 c13.7 -2 25.5 -4.3 42.6 -8.2 1.1 -0.3 2 -0.9 2 -1.4 0 -1.2 -15.3 -12.6 -25.4 -18.9 -14.9 -9.3 -35.5 -19 -51.7 -24.3 -15.3 -5 -35.3 -9 -36.3 -7.3 -0.3 0.5 1.5 2.4 3.9 4.3 7 5.4 20 19.5 26.1 28.4 6.3 9.2 16.8 27.2 16.8 28.6 0 1.5 3.8 1.3 22 -1.3z m-190.9 -6.3 c11.5 -22.5 29.4 -43.8 43.8 -52.3 2.3 -1.4 3.7 -2.6 3.2 -2.7 -1.6 -0.5 -18.2 2.3 -27.6 4.7 -19.6 4.9 -41.6 14 -59.3 24.5 -10.7 6.3 -31.9 21.3 -31.9 22.5 0 2.1 48.8 10.3 63.9 10.8 l4.1 0.1 3.9 -7.7z m-77.8 -6 c1.1 -1.7 18.3 -14.4 27.9 -20.5 5.2 -3.4 14.8 -8.7 21.3 -11.9 7.6 -3.7 11 -5.8 9.6 -5.8 -3.7 0 -28.4 7 -42.3 12 -13.9 5 -40.3 16.6 -42.3 18.5 -1 1 0.4 1.7 8.7 4.4 14.2 4.6 16.2 4.9 17.2 3.4z m334.6 -2.4 c5.6 -1.8 10.6 -3.6 11 -4.1 1.1 -1 -15.1 -8.7 -35 -16.6 -13.4 -5.4 -41.7 -14.3 -45.2 -14.3 -3 0 -0.9 1.6 8.3 6.4 11 5.6 30.3 18.2 40.5 26.3 3.7 3 7.6 5.6 8.5 5.6 0.8 0.1 6.2 -1.4 11.9 -3.2z"/>
  <path d="M484.7 274.8 c0.3 -1.9 0.5 -4.6 0.5 -6 0 -2.1 0.5 -2.6 2.8 -3.1 1.7 -0.3 3.1 -1.3 3.3 -2.3 0.5 -1.9 4.8 -2.4 4.8 -0.4 0 0.6 0.3 2.5 0.5 4 0.5 2.5 0.3 3 -1.8 3.9 -1.7 0.8 -2.3 1.6 -1.8 2.8 0.8 2.6 -1.3 4.4 -5.4 4.4 l-3.6 0 0.6 -3.4z"/>
  <path d="M454.3 226 c0 -1.2 -0.6 -1.6 -2.4 -1.6 -2.1 0 -2.3 -0.2 -1.2 -1.5 0.9 -1.2 0.9 -1.6 -0.2 -2.3 -0.7 -0.4 -2 -0.5 -3 -0.3 -2.4 0.7 -1.5 -1.4 1.5 -3.6 1.8 -1.4 2.7 -1.6 4.2 -0.7 2.7 1.5 11.7 1.3 14.8 -0.4 2.6 -1.3 2.6 -1.3 4.8 1.6 1.3 1.6 2.1 3.4 1.8 4 -0.5 1.6 -9 4.7 -15.3 5.7 -4.6 0.7 -5 0.6 -5 -0.9z"/>
  <path d="M556.7 167.7 c-0.9 -1.2 -3.2 -3.3 -5.1 -4.7 -2.5 -1.9 -3.4 -3.2 -3.2 -4.6 0.2 -1.2 0.8 -1.9 1.6 -1.7 0.7 0.2 3 -0.2 5 -0.7 2.9 -0.8 4.5 -0.7 7.6 0.3 3.8 1.4 4.7 1 2.7 -1 -0.7 -0.7 -0.5 -1.3 1.3 -2 3.1 -1.5 14.8 0.9 15.1 3 0.3 1.3 -0.5 1.6 -3.8 1.6 -2.9 0 -4.7 0.5 -5.9 1.7 -1.7 1.7 -1.7 1.8 0.5 3.3 2.2 1.5 3.1 5 1.2 5 -0.5 0 -2.5 -1.5 -4.2 -3.2 -3.6 -3.6 -3.9 -3.7 -3.9 -1.7 0 1.6 -4.7 6.8 -6.3 6.8 -0.5 0 -1.6 -0.9 -2.6 -2z"/>
  <path d="M660.1 196.6 c-4.3 -2.9 -4.3 -4.7 -0.2 -11.9 2.9 -5.1 3.7 -5.9 8 -7.5 8.5 -3.2 11.9 -4 16.1 -3.6 l4.1 0.3 -4.1 1.3 c-9.7 2.8 -17.8 9.1 -18.8 14.4 -0.5 2.7 -0.2 3.6 2.5 6.3 l3 3.1 -3.6 0 c-2.4 0 -4.7 -0.8 -7 -2.3z"/>
  <path d="M256.6 199.8 c-3.6 -1.5 -2.1 -6.4 1.7 -6.4 0.9 0 1.6 -0.5 1.6 -1 0 -0.5 1.5 -0.8 3.4 -0.6 4.3 0.4 4.8 2.3 2 6.2 -2.2 2.8 -4.7 3.4 -8.8 1.8z"/>
  <path d="M269.5 186.1 c-1 -0.4 -3.4 -0.5 -5.2 -0.3 -3.4 0.5 -3.5 0.5 -3.5 -2.4 0 -2.5 0.4 -2.8 2.4 -2.8 1.3 0 3.1 -0.5 4.1 -1 1.5 -0.7 2.3 -0.6 3.5 0.5 0.9 0.8 2.9 1.7 4.5 2 5.1 1 3 5 -2.6 4.8 -0.7 0 -2.2 -0.4 -3.2 -0.8z"/>
  <path d="M278.5 178.9 c-0.3 -1.1 -1.3 -1.6 -2.7 -1.6 -2.6 0 -4.4 -1.5 -3.6 -2.9 1 -1.6 5 -1.2 6.7 0.7 1.2 1.4 1.9 1.6 3.2 0.9 2.2 -1.2 6.4 -0.7 6.8 0.7 0.5 1.4 -1.9 2.6 -6.5 3.3 -2.8 0.5 -3.6 0.3 -3.9 -1.1z"/>
  <path d="M761.4 170.6 c-0.5 -1 -3 -2.5 -5.4 -3.3 -2.4 -0.7 -4.6 -1.8 -4.8 -2.3 -0.4 -0.5 -1.6 -0.8 -2.8 -0.8 -1.2 0 -2.2 -0.4 -2.2 -0.8 0 -0.5 -0.8 -1.2 -1.9 -1.5 -1.6 -0.5 -1.6 -0.8 -0.6 -2 1.6 -2 6.3 -0.9 11.9 2.8 2.7 1.8 5.7 3.3 6.7 3.3 6 0.1 8 3.6 3.1 5.4 -2.4 0.8 -2.9 0.6 -3.9 -0.8z"/>
  <path d="M883.6 406.6 c-0.5 -1.7 1.9 -6.2 3.5 -6.2 1.1 0 1.3 0.6 0.8 2.6 -0.9 4.2 -1.2 4.7 -2.6 4.7 -0.7 0 -1.5 -0.5 -1.7 -1.1z"/>
  <path d="M271.6 400.9 c-0.8 -1.9 -0.8 -2.6 0.3 -3.7 1.3 -1.2 2 -1.1 6.8 0.6 9.8 3.6 9.7 5.4 -0.4 5.4 -5.2 0 -5.7 -0.2 -6.8 -2.3z"/>
  <path d="M880.6 383.9 c0.3 -1.6 0.5 -3.5 0.5 -4.1 0 -0.7 0.8 -1.3 1.8 -1.3 1.4 0 1.8 0.6 1.8 2.4 0 3.1 -1.6 5.8 -3.4 5.8 -1.1 0 -1.3 -0.6 -0.8 -2.8z"/>
  <path d="M592.9 341.1 c0 -0.5 2 -0.9 4.5 -0.9 2.6 0 4.8 0.5 5.1 0.9 0.4 0.5 -1.4 0.9 -4.5 0.9 -2.8 0 -5.1 -0.4 -5.1 -0.9z"/>
 </g>
</svg>